@startuml

package rueidis {
    interface Client {
        + B() cmds.Builder
        + Do(ctx context.Context, cmd cmds.Completed) (resp RedisResult)
        + DoCache(ctx context.Context, cmd cmds.Cacheable, ttl time.Duration) (resp RedisResult)
        + Receive(ctx context.Context, subscribe cmds.Completed, fn func(msg PubSubMessage)) error
        + Dedicated(fn func(DedicatedClient) error) (err error)
        + Close()
    }
    note top of Client { 
        由 NewClient 函式產生，此函式可以接受客戶端選項
        網路 IP 就由客戶端選項傳入
        之後會依照伺服器 IP 的數量去觸發 newSentinelClient 或 newClusterClient 函式
    }
    
    class singleClient {
        - conn conn
        - cmds.Builder cmd
        + B() cmds.Builder
        + Do(ctx context.Context, cmd cmds.Completed) (resp RedisResult)
        + DoCache(ctx context.Context, cmd cmds.Cacheable, ttl time.Duration) (resp RedisResult)
        + Receive(ctx context.Context, subscribe cmds.Completed, fn func(msg PubSubMessage)) (err error)
        + Dedicated(fn func(DedicatedClient) error) (err error)
        + Close()
    }
    note top of singleClient { 
        由 newSingleClient 函式產生，此函式可以傳入重新連線的函式
        重新連線的函式會重建 mux 對象
    }

    interface wire {
        + Do(ctx context.Context, cmd cmds.Completed) RedisResult
        + DoCache(ctx context.Context, cmd cmds.Cacheable, ttl time.Duration) RedisResult
        + DoMulti(ctx context.Context, multi ...cmds.Completed) []RedisResult
        + Receive(ctx context.Context, subscribe cmds.Completed, fn func(message PubSubMessage)) error
        + Info() map[string]RedisMessage
        + Error() error
        + Close()
    }
    note top of wire { 
        連接到客戶端的快取
    }
    
    interface conn {
        - wire
        + Dial() error
        + Override(conn)
        + Acquire() wire
        + Store(w wire)
    }

    class singleconnect {
        - wire w
        - error e
        - sync.WaitGroup g
    }
    note top of singleconnect { 
        singleconnect 是用於實現 Single Flight，當 mux.sc 不為空值時，就會等待
    }
    
    class pool {
        - wire dead
        - sync.Cond cond
        - func wire make
        - []wire list
        - int size
        - bool down
    }
    note top of pool { 
        pool 在 mux 關閉時會跟著停止，這時回傳的 wire 都為 dead
    }
    
    class mux {
        - wire init
        - wire dead
        - atomic.Value wire
        - atomic.Value doneFn
        - *singleconnect sc
        - *pool pool
        - wireFn wireFn
        - string dst
        - sync.Mutex mu
        + Do(ctx context.Context, cmd cmds.Completed) (resp RedisResult)
        + DoCache(ctx context.Context, cmd cmds.Cacheable, ttl time.Duration) RedisResult
        + DoMulti(ctx context.Context, multi ...cmds.Completed) (resp []RedisResult)
        + Receive(ctx context.Context, subscribe cmds.Completed, fn func(message PubSubMessage)) error
        + Info() map[string]RedisMessage
        + Error() error
        + Close()
        + Dial() error
        + Override(cc conn)
        + Acquire() wire
        + Store(w wire)
        - _newPooledWire() wire
        - pipe() wire
        - _pipe() (w wire, err error)
        - blocking(ctx context.Context, cmd cmds.Completed) (resp RedisResult)
        - blockingMulti(ctx context.Context, cmd []cmds.Completed) (resp []RedisResult)
        - pipeline(ctx context.Context, cmd cmds.Completed) (resp RedisResult)
        - pipelineMulti(ctx context.Context, cmd []cmds.Completed) (resp []RedisResult)
    }
    
    class pipe {
        - int32 waits
        - int32 state
        - int32 slept
        - int32 version
        - sync.Once once
        - sync.Cond cond
        - net.Conn conn
        - queue queue
        - cache cache
        - atomic.Value error
        - *bufio.Reader r
        - *bufio.Writer w
        - map[string]RedisMessage info
        - *subs subs
        - *subs psubs
    }
    note top of pipe { 
        dialFn 會把 Tcp 導入 Pipe
    }
    
    singleconnect::w o-- wire
    mux "3" o-- wire: 由各個獨立連線組成
    
    mux::pool o-- pool: 由獨立的池組成
    mux::sc o-- singleconnect
    
    
    singleClient ..|> Client: 實現
    singleClient::conn *-- conn: 組成
    conn --|> wire: 繼承
    
    singleconnect *-- sync.WaitGroup: 組成
    
    mux --- conn: 編譯時進行檢查
    mux *-- sync.Mutex: 組成
    
    pipe ..|> wire: 實現
    pool::dead ... wire: 用於快速產生 dead wire 
}


@enduml
